<?xml version="1.0" encoding="UTF-8"?>
<svg id="Camada_2" data-name="Camada 2" xmlns="http://www.w3.org/2000/svg" viewBox="0 0 11.76 11.76">
  <defs>
    <style>
      .cls-1 {
        fill: #666;
        stroke-width: 0px;
      }
    </style>
  </defs>
  <g id="Camada_1-2" data-name="Camada 1">
    <g>
      <path class="cls-1" d="m5.88,1.06c1.57,0,1.76,0,2.38.03.57.03.88.12,1.09.2.27.11.47.23.68.44.21.21.33.4.44.68.08.21.18.52.2,1.09.03.62.03.81.03,2.38s0,1.76-.03,2.38c-.03.57-.12.88-.2,1.09-.11.27-.23.47-.44.68-.21.21-.4.33-.68.44-.21.08-.52.18-1.09.2-.62.03-.81.03-2.38.03s-1.76,0-2.38-.03c-.57-.03-.88-.12-1.09-.2-.27-.11-.47-.23-.68-.44-.21-.21-.33-.4-.44-.68-.08-.21-.18-.52-.2-1.09-.03-.62-.03-.81-.03-2.38s0-1.76.03-2.38c.03-.57.12-.88.2-1.09.11-.27.23-.47.44-.68.21-.21.4-.33.68-.44.21-.08.52-.18,1.09-.2.62-.03.81-.03,2.38-.03m0-1.06c-1.6,0-1.8,0-2.42.04-.63.03-1.05.13-1.43.27-.39.15-.71.35-1.04.68s-.53.65-.68,1.04c-.15.37-.24.8-.27,1.43-.03.63-.04.83-.04,2.42s0,1.8.04,2.42c.03.63.13,1.05.27,1.43.15.39.35.71.68,1.04s.65.53,1.04.68c.37.15.8.24,1.43.27.63.03.83.04,2.42.04s1.8,0,2.42-.04c.63-.03,1.05-.13,1.43-.27.39-.15.71-.35,1.04-.68s.53-.65.68-1.04c.15-.37.24-.8.27-1.43.03-.63.04-.83.04-2.42s0-1.8-.04-2.42c-.03-.63-.13-1.05-.27-1.43-.15-.39-.35-.71-.68-1.04s-.65-.53-1.04-.68c-.37-.15-.8-.24-1.43-.27-.63-.03-.83-.04-2.42-.04h0Z"/>
      <path class="cls-1" d="m5.88,2.86c-1.67,0-3.02,1.35-3.02,3.02s1.35,3.02,3.02,3.02,3.02-1.35,3.02-3.02-1.35-3.02-3.02-3.02Zm0,4.98c-1.08,0-1.96-.88-1.96-1.96s.88-1.96,1.96-1.96,1.96.88,1.96,1.96-.88,1.96-1.96,1.96Z"/>
      <path class="cls-1" d="m9.73,2.74c0,.39-.32.71-.71.71s-.71-.32-.71-.71.32-.71.71-.71.71.32.71.71Z"/>
    </g>
  </g>
</svg>