<?xml version="1.0" encoding="UTF-8"?>
<svg id="Camada_2" data-name="Camada 2" xmlns="http://www.w3.org/2000/svg" viewBox="0 0 19.2 19.2">
  <defs>
    <style>
      .cls-1 {
        fill: #666;
        stroke-width: 0px;
      }
    </style>
  </defs>
  <g id="Camada_1-2" data-name="Camada 1">
    <path class="cls-1" d="m9.6,0c1.89,0,3.79,0,5.68,0,1.93,0,3.45,1.22,3.85,3.12.05.25.07.51.07.77,0,3.82,0,7.63,0,11.45,0,1.87-1.28,3.43-3.11,3.79-.24.05-.49.07-.73.07-3.84,0-7.68,0-11.52,0-1.88,0-3.48-1.37-3.78-3.24-.04-.23-.06-.46-.06-.68C0,11.49,0,7.7,0,3.91,0,1.99,1.26.45,3.15.07c.24-.05.5-.06.75-.06.95,0,1.91,0,2.86,0,.95,0,1.89,0,2.84,0Zm.25,14.9c0-.09,0-.15,0-.22,0-1.22,0-2.43,0-3.65,0-.44.17-.82.51-1.11.73-.65,1.85-.45,2.24.41.11.24.16.52.16.78.02,1.2,0,2.4,0,3.6,0,.16.05.21.21.21.53,0,1.05,0,1.58,0,.43,0,.38.06.38-.37,0-1.41,0-2.81,0-4.22,0-.18,0-.37-.03-.55-.09-.95-.81-1.81-1.73-2.09-.42-.13-.85-.1-1.28-.1-.52,0-1,.14-1.42.44-.22.16-.41.36-.63.56v-.92c-.07,0-.12,0-.17,0-.6,0-1.2,0-1.8,0-.15,0-.19.05-.19.19,0,2.3,0,4.59,0,6.89,0,.15.05.19.19.19.59,0,1.19,0,1.78,0,.05,0,.11,0,.19-.01Zm-3.4-3.62c0-1.15,0-2.31,0-3.46,0-.13-.04-.17-.17-.17-.61,0-1.22,0-1.83,0-.14,0-.19.04-.19.19,0,2.3,0,4.59,0,6.89,0,.15.05.19.19.19.61,0,1.21,0,1.82,0,.15,0,.19-.04.19-.19,0-1.15,0-2.3,0-3.45Zm.21-5.97c0-.73-.6-1.33-1.32-1.32-.71,0-1.29.6-1.28,1.32,0,.72.59,1.32,1.29,1.32.73,0,1.32-.6,1.32-1.33Z"/>
  </g>
</svg>