<?xml version="1.0" encoding="UTF-8"?>
<svg id="Camada_2" data-name="Camada 2" xmlns="http://www.w3.org/2000/svg" viewBox="0 0 9.78 11.76">
  <defs>
    <style>
      .cls-1 {
        fill: #dee8da;
        stroke-width: 1px;
      }
    </style>
  </defs>
  <g id="Camada_1-2" data-name="Camada 1">
    <path class="cls-1" d="m3.7,4.36v1.9c-.15.03-.31.05-.46.09-.83.22-1.41,1.06-1.3,1.9.12.92.86,1.59,1.76,1.59.88,0,1.65-.67,1.76-1.54.02-.12.02-.25.02-.38,0-2.55,0-5.11,0-7.66,0-.08,0-.16,0-.26C6.06,0,6.61,0,7.16,0c.05,0,.12.07.15.13.61,1,1.4,1.84,2.37,2.51.05.03.1.11.1.16,0,.66,0,1.32,0,2.02-.91-.26-1.65-.74-2.36-1.42,0,.14,0,.22,0,.3,0,1.46,0,2.92,0,4.37-.01,1.88-1.42,3.45-3.27,3.66-1.87.21-3.59-.98-4.04-2.79-.55-2.22,1.07-4.46,3.33-4.59.08,0,.16,0,.26,0Z"/>
  </g>
</svg>
