<?xml version="1.0" encoding="UTF-8"?>
<svg id="Camada_2" data-name="Camada 2" xmlns="http://www.w3.org/2000/svg" viewBox="0 0 11.81 11.86">
  <defs>
    <style>
      .cls-1 {
        fill: #dee8da;
        fill-rule: evenodd;
        stroke-width: 0px;
      }
    </style>
  </defs>
  <g id="Camada_1-2" data-name="Camada 1">
    <g id="WA_Logo" data-name="WA Logo">
      <path class="cls-1" d="m10.09,1.72C8.98.61,7.5,0,5.93,0,2.69,0,.05,2.64.05,5.88c0,1.04.27,2.05.78,2.94l-.83,3.05,3.12-.82c.86.47,1.83.72,2.81.72h0c3.24,0,5.88-2.64,5.88-5.88,0-1.57-.61-3.05-1.72-4.16Zm-4.16,9.04h0c-.88,0-1.74-.24-2.49-.68l-.18-.11-1.85.49.49-1.8-.12-.18c-.49-.78-.75-1.68-.75-2.6,0-2.69,2.19-4.89,4.89-4.89,1.31,0,2.53.51,3.46,1.43.92.92,1.43,2.15,1.43,3.46,0,2.69-2.19,4.89-4.89,4.89Zm2.68-3.66c-.15-.07-.87-.43-1-.48-.13-.05-.23-.07-.33.07-.1.15-.38.48-.47.58s-.17.11-.32.04c-.15-.07-.62-.23-1.18-.73-.44-.39-.73-.87-.82-1.02s0-.23.06-.3c.07-.07.15-.17.22-.26.07-.09.1-.15.15-.25.05-.1.02-.18-.01-.26-.04-.07-.33-.8-.45-1.09-.12-.29-.24-.25-.33-.25-.09,0-.18,0-.28,0s-.26.04-.39.18c-.13.15-.51.5-.51,1.23s.53,1.42.6,1.52,1.04,1.58,2.51,2.22c.35.15.62.24.84.31.35.11.67.1.93.06.28-.04.87-.36.99-.7.12-.34.12-.64.09-.7-.04-.06-.13-.1-.28-.17Z"/>
    </g>
  </g>
</svg>
