<?xml version="1.0" encoding="UTF-8"?>
<svg id="Camada_2" data-name="Camada 2" xmlns="http://www.w3.org/2000/svg" viewBox="0 0 16.84 11.76">
  <defs>
    <style>
      .cls-1 {
        fill: #dee8da;
        stroke-width: 0px;
      }
    </style>
  </defs>
  <g id="Camada_1-2" data-name="Camada 1">
    <g id="g8">
      <path class="cls-1" d="m16.49,1.83c-.19-.72-.76-1.29-1.48-1.48-1.32-.35-6.59-.35-6.59-.35,0,0-5.27,0-6.59.35-.72.19-1.29.76-1.48,1.48-.35,1.32-.35,4.05-.35,4.05,0,0,0,2.75.35,4.05.19.72.76,1.29,1.48,1.48,1.32.35,6.59.35,6.59.35,0,0,5.27,0,6.59-.35.72-.19,1.29-.76,1.48-1.48.35-1.32.35-4.05.35-4.05,0,0,0-2.73-.35-4.05Zm-9.76,6.59V3.36l4.38,2.54-4.38,2.52Z"/>
    </g>
  </g>
</svg>
