<?xml version="1.0" encoding="UTF-8"?>
<svg id="Camada_2" data-name="Camada 2" xmlns="http://www.w3.org/2000/svg" xmlns:xlink="http://www.w3.org/1999/xlink" viewBox="0 0 364.12 303.41">
  <defs>
    <style>
      .cls-1 {
        filter: url(#outer-glow-1);
      }

      .cls-2 {
        fill: #0c0d65;
      }

      .cls-2, .cls-3 {
        stroke-width: 0px;
      }

      .cls-4 {
        fill: #01012f;
        stroke: #0c0d65;
        stroke-miterlimit: 10;
        stroke-width: 2px;
      }

      .cls-3 {
        fill: #dee8da;
      }
    </style>
    <filter id="outer-glow-1" filterUnits="userSpaceOnUse">
      <feOffset dx="0" dy="0"/>
      <feGaussianBlur result="blur" stdDeviation="18"/>
      <feFlood flood-color="#1b2087" flood-opacity=".69"/>
      <feComposite in2="blur" operator="in"/>
      <feComposite in="SourceGraphic"/>
    </filter>
  </defs>
  <g id="Camada_1-2" data-name="Camada 1">
    <g>
      <g class="cls-1">
        <rect class="cls-4" x="1" y="1" width="362.12" height="301.41" rx="19.76" ry="19.76"/>
      </g>
      <g>
        <path class="cls-3" d="m156.69,199.85c-5.32,0-8.95-3.34-8.95-8.21s3.55-8.17,8.73-8.17c1.98,0,3.59.43,4.7.98l-.15,1.31c-1.11-.52-2.78-.95-4.57-.95-4.31,0-7.25,2.77-7.25,6.82s3.05,6.87,7.49,6.87c3.01,0,4.58-1.02,4.58-1.02l.28,1.35s-1.93,1.02-4.85,1.02Z"/>
        <path class="cls-3" d="m175.33,199.61h-1.41v-2.17c-.84,1.35-2.53,2.4-4.66,2.4-3.25,0-5.7-2.57-5.7-5.87s2.45-5.85,5.7-5.85c2.12,0,3.81,1.03,4.66,2.37v-2.13h1.41v11.25Zm-10.38-5.64c0,2.59,1.89,4.58,4.41,4.58,2.65,0,4.64-1.99,4.64-4.58s-1.99-4.56-4.64-4.56-4.41,1.99-4.41,4.56Z"/>
        <path class="cls-3" d="m188.28,188.36h1.38v6.68c0,2.8-1.9,4.8-5.07,4.8s-5.07-2-5.07-4.73v-6.75h1.38v6.46c0,2.48,1.46,3.71,3.69,3.71s3.69-1.23,3.69-3.71v-6.46Z"/>
        <path class="cls-3" d="m198.13,193.45c2.18.42,3.33,1.46,3.33,3.04,0,2.1-1.63,3.36-4.36,3.36-1.48,0-3.04-.32-4.16-.84l.22-1.34c.93.56,2.37.89,3.83.89,1.92,0,3.08-.71,3.08-1.92s-1.12-1.7-2.85-2.02l-1.25-.23c-1.75-.33-3.09-1.17-3.09-2.89,0-2.1,1.68-3.36,4.46-3.36,1.32,0,2.61.23,3.43.56l-.23,1.24c-.9-.34-2.06-.55-3.08-.55-1.96,0-3.13.74-3.13,1.98s1.02,1.56,2.75,1.89l1.04.2Z"/>
        <path class="cls-3" d="m215.55,199.61h-1.41v-2.17c-.84,1.35-2.53,2.4-4.66,2.4-3.25,0-5.7-2.57-5.7-5.87s2.45-5.85,5.7-5.85c2.12,0,3.81,1.03,4.66,2.37v-2.13h1.41v11.25Zm-10.38-5.64c0,2.59,1.89,4.58,4.41,4.58,2.65,0,4.64-1.99,4.64-4.58s-1.99-4.56-4.64-4.56-4.41,1.99-4.41,4.56Z"/>
        <path class="cls-3" d="m157.65,228.41h-1.43l-1.69-4.07h-8.77l-1.68,4.07h-1.48l6.62-15.91h1.84l6.57,15.91Zm-11.36-5.32h7.72l-3.87-9.33-3.86,9.33Z"/>
        <path class="cls-3" d="m170.28,221.54v6.87h-1.38v-6.45c0-2.52-1.28-3.73-3.61-3.73-2.14,0-3.86,1.56-3.86,3.8v6.38h-1.41v-11.25h1.41v1.96c.89-1.52,2.5-2.19,4.08-2.19,2.84,0,4.77,1.57,4.77,4.62Z"/>
        <path class="cls-3" d="m174.3,213.39c0-.52.36-.88.88-.88s.89.36.89.88-.38.88-.89.88-.88-.36-.88-.88Zm.18,3.77h1.41v11.25h-1.41v-11.25Z"/>
        <path class="cls-3" d="m198.77,221.49v6.93h-1.39v-6.5c0-2.29-1.31-3.68-3.57-3.68-2.02,0-3.62,1.54-3.62,3.75v6.43h-1.39v-6.5c0-2.29-1.3-3.68-3.42-3.68s-3.73,1.54-3.73,3.75v6.43h-1.39v-11.25h1.39v1.93c.87-1.51,2.43-2.17,3.96-2.17,2.06,0,3.57.98,4.23,2.64.83-1.84,2.48-2.64,4.21-2.64,2.85,0,4.73,1.77,4.73,4.56Z"/>
        <path class="cls-3" d="m213.78,228.41h-1.41v-2.17c-.84,1.35-2.53,2.4-4.66,2.4-3.25,0-5.7-2.57-5.7-5.87s2.45-5.85,5.7-5.85c2.12,0,3.81,1.03,4.66,2.37v-2.13h1.41v11.25Zm-10.38-5.64c0,2.59,1.89,4.58,4.41,4.58,2.65,0,4.64-1.99,4.64-4.58s-1.99-4.56-4.64-4.56-4.41,1.99-4.41,4.56Z"/>
        <path class="cls-3" d="m218.14,211.91h1.41v16.5h-1.41v-16.5Z"/>
      </g>
      <g>
        <circle class="cls-2" cx="182.06" cy="113.06" r="48.52"/>
        <g>
          <path class="cls-3" d="m182.08,111.57c2.49.07,4.71.84,6.54,2.53,2.89,2.68,5.77,5.38,8.59,8.13,1.98,1.93,2.48,4.33,1.66,6.93-.82,2.62-2.59,4.33-5.34,4.9-1.48.3-2.9-.12-4.33-.43-1.68-.37-3.34-.82-5.04-1.1-2.29-.37-4.54-.05-6.77.55-1.57.43-3.17.81-4.78,1.02-3.97.52-7.02-2.36-7.62-5.88-.43-2.5.36-4.58,2.21-6.31,2.68-2.5,5.33-5.03,7.99-7.55,1.94-1.83,4.25-2.74,6.89-2.79Z"/>
          <path class="cls-3" d="m180.5,99.96c-.03,2.33-.59,4.39-2.02,6.16-2.04,2.53-5.3,2.6-7.39.12-1.78-2.1-2.32-4.59-2.08-7.27.16-1.77.65-3.45,1.75-4.89,2.17-2.84,5.87-2.81,7.98.07,1.29,1.75,1.7,3.78,1.75,5.81Z"/>
          <path class="cls-3" d="m183.6,99.75c.05-1.82.45-3.8,1.69-5.51,2.19-3.04,5.99-3.04,8.16.01,1.46,2.05,1.84,4.4,1.64,6.86-.14,1.64-.65,3.16-1.59,4.52-2.26,3.26-6.07,3.23-8.29-.05-1.14-1.68-1.61-3.56-1.61-5.83Z"/>
          <path class="cls-3" d="m196.39,111.3c.02-2.48.7-4.74,2.33-6.65.78-.91,1.71-1.6,2.93-1.77,1.68-.22,2.9.51,3.75,1.92.88,1.45,1.07,3.05.93,4.68-.17,1.97-.76,3.82-1.96,5.42-.78,1.05-1.77,1.84-3.09,2.08-1.68.3-3.17-.46-4.06-2.02-.58-1.03-.85-2.2-.84-3.67Z"/>
          <path class="cls-3" d="m167.74,111.28c-.01,1.24-.22,2.43-.78,3.54-1.24,2.44-3.93,3.01-6.06,1.28-1.3-1.06-2.07-2.47-2.57-4.04-.64-2.03-.84-4.09-.16-6.16.32-.97.84-1.8,1.68-2.39,1.59-1.11,3.57-.84,5.16.74,1.48,1.48,2.27,3.31,2.58,5.37.08.55.1,1.11.15,1.66Z"/>
        </g>
      </g>
    </g>
  </g>
</svg>