<?xml version="1.0" encoding="UTF-8"?>
<svg id="Camada_2" data-name="Camada 2" xmlns="http://www.w3.org/2000/svg" xmlns:xlink="http://www.w3.org/1999/xlink" viewBox="0 0 364.12 303.41">
  <defs>
    <style>
      .cls-1 {
        filter: url(#outer-glow-1);
      }

      .cls-2 {
        fill: #0c0d65;
      }

      .cls-2, .cls-3 {
        stroke-width: 0px;
      }

      .cls-4 {
        fill: #01012f;
        stroke: #0c0d65;
        stroke-miterlimit: 10;
        stroke-width: 2px;
      }

      .cls-3 {
        fill: #dee8da;
      }
    </style>
    <filter id="outer-glow-1" filterUnits="userSpaceOnUse">
      <feOffset dx="0" dy="0"/>
      <feGaussianBlur result="blur" stdDeviation="18"/>
      <feFlood flood-color="#1b2087" flood-opacity=".69"/>
      <feComposite in2="blur" operator="in"/>
      <feComposite in="SourceGraphic"/>
    </filter>
  </defs>
  <g id="Camada_1-2" data-name="Camada 1">
    <g>
      <g class="cls-1">
        <rect class="cls-4" x="1" y="1" width="362.12" height="301.41" rx="19.76" ry="19.76"/>
      </g>
      <g>
        <g>
          <circle class="cls-2" cx="182.06" cy="113.06" r="48.52"/>
          <g>
            <path class="cls-3" d="m189.76,133c-.26,2.59-1.67,4.02-4.16,4.45,0,.39.02.75,0,1.1-.07,1.05-.9,1.86-1.95,1.87-1.02.01-2.03,0-3.05,0-1.18,0-2.01-.8-2.07-1.98-.02-.32.08-.72-.08-.93-.15-.2-.58-.19-.88-.28-1.86-.6-3.01-2.05-3.18-3.99,0-.07.01-.14.03-.23h15.34Z"/>
            <path class="cls-3" d="m182.03,130.27c-2.26,0-4.52,0-6.78,0-.92,0-1.64-.66-1.76-1.54-.12-.95.37-1.75,1.26-2.02.2-.06.42-.08.63-.08,4.45,0,8.9,0,13.35,0,1.27,0,2.08.95,1.88,2.15-.14.86-.86,1.48-1.75,1.49-2.28.01-4.56,0-6.83,0Z"/>
            <path class="cls-3" d="m199.96,100.21c-.56-2.79-1.76-5.32-3.54-7.56-2.44-3.05-5.51-5.17-9.28-6.23-1.17-.33-2.39-.5-3.59-.74h-2.99c-.14.03-.27.08-.41.1-1.82.18-3.58.59-5.24,1.35-6.29,2.88-10.05,7.74-10.99,14.6-.64,4.63.46,8.93,3.19,12.73,2.2,3.05,4.47,6.04,6.39,9.27.1.17.43.3.65.3,5.27.02,10.55,0,15.82.02.35,0,.54-.11.73-.4,1.04-1.64,2.06-3.28,3.16-4.88,1.33-1.94,2.86-3.75,4.06-5.76,2.37-3.96,2.96-8.29,2.05-12.81Z"/>
          </g>
        </g>
        <g>
          <path class="cls-3" d="m112.73,199.61v-15.91h11.26v1.27h-9.86v5.82h8.62v1.28h-8.62v6.28h10.11v1.27h-11.52Z"/>
          <path class="cls-3" d="m146.15,192.69v6.93h-1.39v-6.5c0-2.29-1.31-3.68-3.57-3.68-2.02,0-3.62,1.54-3.62,3.75v6.43h-1.39v-6.5c0-2.29-1.3-3.68-3.42-3.68s-3.73,1.54-3.73,3.75v6.43h-1.39v-11.25h1.39v1.93c.87-1.51,2.43-2.17,3.96-2.17,2.06,0,3.57.98,4.23,2.64.83-1.84,2.48-2.64,4.21-2.64,2.85,0,4.73,1.77,4.73,4.56Z"/>
          <path class="cls-3" d="m151.75,188.36v2.13c.86-1.34,2.54-2.37,4.66-2.37,3.25,0,5.7,2.55,5.7,5.85s-2.45,5.87-5.7,5.87c-2.13,0-3.82-1.05-4.66-2.4v6.86h-1.41v-15.94h1.41Zm-.07,5.61c0,2.59,1.99,4.58,4.64,4.58s4.41-1.99,4.41-4.58-1.89-4.56-4.41-4.56c-2.65,0-4.64,1.99-4.64,4.56Z"/>
          <path class="cls-3" d="m166.93,190.15c.63-1.37,1.8-2.03,3.14-2.03.71,0,1.22.11,1.65.29l-.14,1.31c-.49-.19-.86-.3-1.58-.3-1.76,0-3.06,1.31-3.06,3.82v6.36h-1.42v-11.25h1.41v1.79Z"/>
          <path class="cls-3" d="m183.61,198.73c-1.32.8-2.73,1.11-4.18,1.11-3.8,0-6.41-2.39-6.41-5.86s2.4-5.86,5.79-5.86c3.96,0,5.92,3.11,5.38,6.38h-9.66c.22,2.59,2.55,4.01,4.73,4.01,1.3,0,2.53-.11,4.04-1.03l.3,1.25Zm-.74-5.43c-.11-2.21-1.58-3.84-4.02-3.84s-4.12,1.62-4.29,3.84h8.31Z"/>
          <path class="cls-3" d="m197.3,198.73c-1.32.8-2.73,1.11-4.18,1.11-3.8,0-6.41-2.39-6.41-5.86s2.4-5.86,5.79-5.86c3.96,0,5.92,3.11,5.38,6.38h-9.66c.22,2.59,2.55,4.01,4.73,4.01,1.3,0,2.53-.11,4.04-1.03l.3,1.25Zm-.74-5.43c-.11-2.21-1.58-3.84-4.02-3.84s-4.12,1.62-4.29,3.84h8.31Z"/>
          <path class="cls-3" d="m211.63,192.74v6.87h-1.38v-6.45c0-2.52-1.28-3.73-3.61-3.73-2.14,0-3.86,1.56-3.86,3.8v6.38h-1.41v-11.25h1.41v1.96c.89-1.52,2.5-2.19,4.08-2.19,2.84,0,4.77,1.57,4.77,4.62Z"/>
          <path class="cls-3" d="m225.23,197.48c-.86,1.34-2.54,2.37-4.66,2.37-3.25,0-5.7-2.55-5.7-5.85s2.45-5.87,5.7-5.87c2.13,0,3.82,1.05,4.66,2.4v-7.42h1.41v16.5h-1.41v-2.13Zm.07-3.48c0-2.59-1.99-4.58-4.64-4.58s-4.41,1.99-4.41,4.58,1.89,4.56,4.41,4.56c2.65,0,4.64-1.99,4.64-4.56Z"/>
          <path class="cls-3" d="m240.63,198.73c-1.32.8-2.73,1.11-4.18,1.11-3.8,0-6.41-2.39-6.41-5.86s2.4-5.86,5.79-5.86c3.96,0,5.92,3.11,5.38,6.38h-9.66c.22,2.59,2.55,4.01,4.73,4.01,1.3,0,2.53-.11,4.04-1.03l.3,1.25Zm-.74-5.43c-.11-2.21-1.58-3.84-4.02-3.84s-4.12,1.62-4.29,3.84h8.31Z"/>
          <path class="cls-3" d="m252.1,193.54h-7.69v-1.39h7.69v1.39Z"/>
          <path class="cls-3" d="m147.63,226.28c-.86,1.34-2.54,2.37-4.66,2.37-3.25,0-5.7-2.55-5.7-5.85s2.45-5.87,5.7-5.87c2.13,0,3.82,1.05,4.66,2.4v-7.42h1.41v16.5h-1.41v-2.13Zm.07-3.48c0-2.59-1.99-4.58-4.64-4.58s-4.41,1.99-4.41,4.58,1.89,4.56,4.41,4.56c2.65,0,4.64-1.99,4.64-4.56Z"/>
          <path class="cls-3" d="m158.39,216.93c3.42,0,5.98,2.57,5.98,5.86s-2.55,5.86-5.98,5.86-5.98-2.57-5.98-5.86,2.55-5.86,5.98-5.86Zm0,10.43c2.61,0,4.57-2,4.57-4.57s-1.96-4.57-4.57-4.57-4.57,2-4.57,4.57,1.96,4.57,4.57,4.57Z"/>
          <path class="cls-3" d="m169.14,218.95c.63-1.37,1.8-2.03,3.14-2.03.71,0,1.22.11,1.65.29l-.14,1.31c-.49-.19-.86-.3-1.58-.3-1.76,0-3.06,1.31-3.06,3.82v6.36h-1.42v-11.25h1.41v1.79Z"/>
          <path class="cls-3" d="m176.35,213.39c0-.52.36-.88.88-.88s.89.36.89.88-.38.88-.89.88-.88-.36-.88-.88Zm.18,3.77h1.41v11.25h-1.41v-11.25Z"/>
          <path class="cls-3" d="m186.59,222.25c2.18.42,3.33,1.46,3.33,3.04,0,2.1-1.63,3.36-4.36,3.36-1.48,0-3.04-.32-4.16-.84l.22-1.34c.93.56,2.37.89,3.83.89,1.92,0,3.08-.71,3.08-1.92s-1.12-1.7-2.85-2.02l-1.25-.23c-1.75-.33-3.09-1.17-3.09-2.89,0-2.1,1.68-3.36,4.46-3.36,1.32,0,2.61.23,3.43.56l-.23,1.24c-.9-.34-2.06-.55-3.08-.55-1.96,0-3.13.74-3.13,1.98s1.02,1.56,2.75,1.89l1.04.2Z"/>
          <path class="cls-3" d="m211.72,221.49v6.93h-1.39v-6.5c0-2.29-1.31-3.68-3.57-3.68-2.02,0-3.62,1.54-3.62,3.75v6.43h-1.39v-6.5c0-2.29-1.3-3.68-3.42-3.68s-3.73,1.54-3.73,3.75v6.43h-1.39v-11.25h1.39v1.93c.87-1.51,2.43-2.17,3.96-2.17,2.06,0,3.57.98,4.23,2.64.83-1.84,2.48-2.64,4.21-2.64,2.85,0,4.73,1.77,4.73,4.56Z"/>
          <path class="cls-3" d="m220.91,216.93c3.42,0,5.98,2.57,5.98,5.86s-2.55,5.86-5.98,5.86-5.98-2.57-5.98-5.86,2.55-5.86,5.98-5.86Zm0,10.43c2.61,0,4.57-2,4.57-4.57s-1.96-4.57-4.57-4.57-4.57,2-4.57,4.57,1.96,4.57,4.57,4.57Z"/>
        </g>
      </g>
    </g>
  </g>
</svg>