<?xml version="1.0" encoding="UTF-8"?>
<svg id="Camada_2" data-name="Camada 2" xmlns="http://www.w3.org/2000/svg" viewBox="0 0 362.12 301.41">
  <defs>
    <style>
      .cls-1 {
        fill: #01012f;
      }

      .cls-1, .cls-2, .cls-3 {
        stroke-width: 0px;
      }

      .cls-2 {
        fill: #0c0d65;
      }

      .cls-3 {
        fill: #dee8da;
      }
    </style>
  </defs>
  <g id="Camada_1-2" data-name="Camada 1">
    <g>
      <rect class="cls-1" width="362.12" height="301.41" rx="19.76" ry="19.76"/>
      <g>
        <path class="cls-3" d="m141.48,198.61v-15.91h11.26v1.27h-9.86v5.82h8.62v1.28h-8.62v6.28h10.11v1.27h-11.52Z"/>
        <path class="cls-3" d="m160.81,192.45c2.18.42,3.33,1.46,3.33,3.04,0,2.1-1.63,3.36-4.36,3.36-1.48,0-3.04-.32-4.16-.84l.22-1.34c.93.56,2.37.89,3.83.89,1.92,0,3.08-.71,3.08-1.92s-1.12-1.7-2.85-2.02l-1.25-.23c-1.75-.33-3.09-1.17-3.09-2.89,0-2.1,1.68-3.36,4.46-3.36,1.32,0,2.61.23,3.43.56l-.23,1.24c-.9-.34-2.06-.55-3.08-.55-1.96,0-3.13.74-3.13,1.98s1.02,1.56,2.75,1.89l1.04.2Z"/>
        <path class="cls-3" d="m168.82,187.36v2.13c.86-1.34,2.54-2.37,4.66-2.37,3.25,0,5.7,2.55,5.7,5.85s-2.45,5.87-5.7,5.87c-2.13,0-3.82-1.05-4.66-2.4v6.86h-1.41v-15.94h1.41Zm-.07,5.61c0,2.59,1.99,4.58,4.64,4.58s4.41-1.99,4.41-4.58-1.89-4.56-4.41-4.56c-2.65,0-4.64,1.99-4.64,4.56Z"/>
        <path class="cls-3" d="m187.58,187.13c3.42,0,5.98,2.57,5.98,5.86s-2.55,5.86-5.98,5.86-5.98-2.57-5.98-5.86,2.55-5.86,5.98-5.86Zm0,10.43c2.61,0,4.57-2,4.57-4.57s-1.96-4.57-4.57-4.57-4.57,2-4.57,4.57,1.96,4.57,4.57,4.57Z"/>
        <path class="cls-3" d="m198.34,189.15c.63-1.37,1.8-2.03,3.14-2.03.71,0,1.22.11,1.65.29l-.14,1.31c-.49-.19-.86-.3-1.58-.3-1.76,0-3.06,1.31-3.06,3.82v6.36h-1.42v-11.25h1.41v1.79Z"/>
        <path class="cls-3" d="m207.69,188.6v6.53c0,1.76.89,2.45,2.04,2.45.68,0,1.5-.12,2.03-.35l.19,1.21c-.41.2-1.35.41-2.29.41-1.98,0-3.39-1.08-3.39-3.38v-6.87h-2.14v-1.24h2.13v-3.61h1.43v3.61h3.84v1.24h-3.84Z"/>
        <path class="cls-3" d="m218.83,192.45c2.18.42,3.33,1.46,3.33,3.04,0,2.1-1.63,3.36-4.36,3.36-1.48,0-3.04-.32-4.16-.84l.22-1.34c.93.56,2.37.89,3.83.89,1.92,0,3.08-.71,3.08-1.92s-1.12-1.7-2.85-2.02l-1.25-.23c-1.75-.33-3.09-1.17-3.09-2.89,0-2.1,1.68-3.36,4.46-3.36,1.32,0,2.61.23,3.43.56l-.23,1.24c-.9-.34-2.06-.55-3.08-.55-1.96,0-3.13.74-3.13,1.98s1.02,1.56,2.75,1.89l1.04.2Z"/>
      </g>
      <g>
        <circle class="cls-2" cx="181.06" cy="112.06" r="48.52"/>
        <g>
          <path class="cls-3" d="m209.57,122.24c-1.37,3.33-2.78,6.64-4.08,9.99-.69,1.79-2.54,2.68-4.31,1.83-.4-.19-.82-.33-1.3-.52,2.1-5.12,4.18-10.22,6.28-15.34,1.49.55,2.94,1.08,3.41,2.81v1.22Z"/>
          <path class="cls-3" d="m162.6,111.74c-1.7.78-3.29,1.51-4.84,2.23-.56-6.5.41-12.62,4.4-17.98,3.75-5.04,8.72-8.17,14.91-9.25,10.92-1.92,21.38,4.08,25.53,13.9,1.17,2.77,1.82,5.66,1.84,8.68,0,1.54,0,3.08,0,4.68-1.62-.75-3.2-1.48-4.9-2.27.33-6.59-1.92-12.25-7.34-16.43-3.8-2.93-8.18-4.13-12.94-3.66-5.06.5-9.26,2.75-12.5,6.68-3.23,3.92-4.47,8.49-4.17,13.42Z"/>
          <path class="cls-3" d="m187.1,136.16v-.87c2.56-.11,5.08-.39,7.62-1.21-.17-.1-.28-.18-.4-.23-.81-.32-1.62-.62-2.43-.94-1.11-.43-1.51-1.36-1.05-2.46,2.33-5.5,4.66-11,6.99-16.49.46-1.09,1.39-1.44,2.45-.95,1.29.6,2.58,1.21,3.85,1.84,1.24.61,1.71,1.8,1.19,3.07-2.07,5.09-4.16,10.16-6.23,15.25-.35.86-1.44,1.73-2.65,1.46-.25-.05-.54.05-.8.14-2.59.84-5.23,1.32-7.96,1.38-.18,0-.36,0-.6,0Z"/>
          <path class="cls-3" d="m162.49,112.79c.91-.01,1.49.42,1.86,1.28,1.49,3.51,2.97,7.02,4.46,10.52.81,1.91,1.62,3.81,2.43,5.72.54,1.29.19,2.13-1.12,2.64-1.29.51-2.58,1.02-3.87,1.51-1.43.55-2.67.02-3.25-1.41-2.07-5.03-4.13-10.06-6.18-15.09-.52-1.28-.08-2.49,1.14-3.09,1.31-.65,2.63-1.27,3.95-1.89.23-.11.49-.16.59-.19Z"/>
          <path class="cls-3" d="m162.28,133.61c-.86.26-1.67.64-2.51.74-1.38.17-2.44-.54-2.98-1.83-1.01-2.42-2-4.85-2.99-7.28-.33-.8-.67-1.6-.99-2.41-.65-1.66-.01-3.22,1.61-3.96.5-.23,1-.45,1.55-.69,2.1,5.14,4.19,10.23,6.32,15.43Z"/>
          <path class="cls-3" d="m183.33,133.71c.54,0,1.08,0,1.61,0,.73.01,1.21.4,1.27,1.13.05.62.04,1.26-.02,1.88-.07.61-.52.99-1.14,1-1.17.02-2.34.02-3.51,0-.69-.01-1.15-.47-1.21-1.2-.04-.53-.04-1.08,0-1.61.06-.77.55-1.19,1.33-1.2.56,0,1.11,0,1.67,0Z"/>
        </g>
      </g>
    </g>
  </g>
</svg>