<?xml version="1.0" encoding="UTF-8"?>
<svg id="Camada_2" data-name="Camada 2" xmlns="http://www.w3.org/2000/svg" viewBox="0 0 362.12 301.41">
  <defs>
    <style>
      .cls-1 {
        fill: #01012f;
      }

      .cls-1, .cls-2, .cls-3 {
        stroke-width: 0px;
      }

      .cls-2 {
        fill: #0c0d65;
      }

      .cls-3 {
        fill: #dee8da;
      }
    </style>
  </defs>
  <g id="Camada_1-2" data-name="Camada 1">
    <g>
      <rect class="cls-1" x="0" width="362.12" height="301.41" rx="19.76" ry="19.76"/>
      <g>
        <circle class="cls-2" cx="181.06" cy="112.06" r="48.52"/>
        <g>
          <path class="cls-3" d="m181.47,83.5c1.02.41,1.38,1.19,1.33,2.26-.04.97,0,1.94-.02,2.9-.02.83-.48,1.44-1.17,1.67-.68.23-1.46.05-1.86-.53-.23-.34-.4-.78-.42-1.19-.06-1.09-.02-2.18-.02-3.27,0-.93.51-1.49,1.32-1.84h.83Z"/>
          <path class="cls-3" d="m196.61,125.05h-31.09c-.02-.1-.04-.18-.04-.26,0-5.15-.08-10.3.02-15.45.14-7.41,4.86-13.31,12.09-15.02,5.06-1.19,9.67.02,13.64,3.39,2.74,2.32,4.44,5.3,5.11,8.84.19,1.01.28,2.06.28,3.09.03,4.98.01,9.96.01,14.93,0,.15-.02.3-.03.48Zm-6.92-15.95c-.06-1.34-.3-2.38-.95-3.57-1.64-3.01-4.2-4.59-7.63-4.7-1.19-.04-2,1.03-1.72,2.16.18.73.77,1.22,1.58,1.27,1.17.07,2.25.35,3.19,1.07,1.34,1.03,2.03,2.41,2.09,4.09.03.83.46,1.41,1.16,1.68,1.03.39,2.49-.37,2.28-2.01Z"/>
          <path class="cls-3" d="m181.04,136.62c-5.64,0-11.27,0-16.91,0-1.5,0-2.13-.64-2.13-2.15,0-1.3,0-2.59,0-3.89,0-1.37.68-2.04,2.04-2.04,11.34,0,22.69,0,34.03,0,1.37,0,2.05.67,2.05,2.03,0,1.35,0,2.7,0,4.05,0,1.34-.68,2.01-2.01,2.01-5.69,0-11.38,0-17.07,0Z"/>
          <path class="cls-3" d="m166.33,96.6c-.38-.18-.82-.29-1.12-.56-.88-.8-1.72-1.65-2.54-2.52-.69-.73-.65-1.75.03-2.42.65-.64,1.69-.68,2.39-.02.88.83,1.73,1.69,2.56,2.57.51.54.58,1.2.26,1.88-.3.63-.83.95-1.58,1.08Z"/>
          <path class="cls-3" d="m195.77,96.58c-.71-.1-1.23-.41-1.54-1.01-.32-.63-.32-1.29.15-1.8.9-.98,1.84-1.93,2.82-2.81.63-.57,1.62-.44,2.22.15.62.61.74,1.6.15,2.26-.88.97-1.82,1.89-2.79,2.78-.26.24-.67.3-1.01.44Z"/>
          <path class="cls-3" d="m158.54,111.2c-.59,0-1.18.02-1.76,0-.98-.03-1.7-.77-1.69-1.73,0-.94.7-1.68,1.66-1.7,1.19-.03,2.38-.03,3.58,0,.96.02,1.66.75,1.66,1.69,0,.96-.7,1.7-1.68,1.74-.59.02-1.17,0-1.76,0Z"/>
          <path class="cls-3" d="m203.55,111.2c-.57,0-1.14.01-1.71,0-.99-.03-1.71-.75-1.71-1.71,0-.96.7-1.71,1.69-1.73,1.17-.02,2.35-.02,3.52,0,.99.02,1.7.77,1.69,1.73,0,.96-.72,1.68-1.71,1.71-.59.02-1.17,0-1.76,0Z"/>
        </g>
      </g>
      <g>
        <path class="cls-3" d="m106.58,191.05v7.56h-1.41v-15.91h10.85v1.27h-9.45v5.84h7.69v1.25h-7.69Z"/>
        <path class="cls-3" d="m118.71,183.59c0-.52.36-.88.88-.88s.89.36.89.88-.38.88-.89.88-.88-.36-.88-.88Zm.18,3.77h1.41v11.25h-1.41v-11.25Z"/>
        <path class="cls-3" d="m128.95,192.45c2.18.42,3.33,1.46,3.33,3.04,0,2.1-1.63,3.36-4.36,3.36-1.48,0-3.04-.32-4.16-.84l.22-1.34c.93.56,2.37.89,3.83.89,1.92,0,3.08-.71,3.08-1.92s-1.12-1.7-2.85-2.02l-1.25-.23c-1.75-.33-3.09-1.17-3.09-2.89,0-2.1,1.68-3.36,4.46-3.36,1.32,0,2.61.23,3.43.56l-.23,1.24c-.9-.34-2.06-.55-3.08-.55-1.96,0-3.13.74-3.13,1.98s1.02,1.56,2.75,1.89l1.04.2Z"/>
        <path class="cls-3" d="m140.87,187.13c1.56,0,2.81.42,3.38.74l-.15,1.29c-.7-.38-1.9-.69-3.22-.69-2.86,0-4.82,1.79-4.82,4.51s1.97,4.54,4.85,4.54c1.22,0,2.57-.32,3.34-.75l.26,1.3c-.93.47-2.38.79-3.6.79-3.75,0-6.32-2.39-6.32-5.87s2.55-5.85,6.28-5.85Z"/>
        <path class="cls-3" d="m158.28,198.61h-1.41v-2.17c-.84,1.35-2.53,2.4-4.66,2.4-3.25,0-5.7-2.57-5.7-5.87s2.45-5.85,5.7-5.85c2.12,0,3.81,1.03,4.66,2.37v-2.13h1.41v11.25Zm-10.38-5.64c0,2.59,1.89,4.58,4.41,4.58,2.65,0,4.64-1.99,4.64-4.58s-1.99-4.56-4.64-4.56-4.41,1.99-4.41,4.56Z"/>
        <path class="cls-3" d="m162.64,182.11h1.41v16.5h-1.41v-16.5Z"/>
        <path class="cls-3" d="m168.23,183.59c0-.52.36-.88.88-.88s.89.36.89.88-.38.88-.89.88-.88-.36-.88-.88Zm.18,3.77h1.41v11.25h-1.41v-11.25Z"/>
        <path class="cls-3" d="m173.24,197.4l6.43-8.8h-6.38v-1.24h8.09v1.21l-6.45,8.8h6.75v1.24h-8.45v-1.21Z"/>
        <path class="cls-3" d="m195.55,198.61h-1.41v-2.17c-.84,1.35-2.53,2.4-4.66,2.4-3.25,0-5.7-2.57-5.7-5.87s2.45-5.85,5.7-5.85c2.12,0,3.81,1.03,4.66,2.37v-2.13h1.41v11.25Zm-10.38-5.64c0,2.59,1.89,4.58,4.41,4.58,2.65,0,4.64-1.99,4.64-4.58s-1.99-4.56-4.64-4.56-4.41,1.99-4.41,4.56Z"/>
        <path class="cls-3" d="m203.35,200.76l.73-1.99c-3.09-.45-5.13-2.68-5.13-5.79,0-3.47,2.55-5.85,6.28-5.85,1.56,0,2.81.42,3.38.74l-.15,1.29c-.7-.38-1.9-.69-3.22-.69-2.86,0-4.82,1.79-4.82,4.51s1.97,4.54,4.85,4.54c1.22,0,2.57-.32,3.34-.75l.26,1.3c-.93.47-2.38.79-3.6.79-.06,0-.12-.01-.18-.01l-.33.97c1.41.11,2.37.81,2.37,1.9,0,1.27-1.05,2.03-2.82,2.03-.67,0-1.23-.12-1.51-.21v-1.16c.28.09.75.22,1.39.22,1.07,0,1.63-.3,1.63-.88,0-.62-.63-.95-1.89-.95h-.57Z"/>
        <path class="cls-3" d="m222.64,198.61h-1.41v-2.17c-.84,1.35-2.53,2.4-4.66,2.4-3.25,0-5.7-2.57-5.7-5.87s2.45-5.85,5.7-5.85c2.12,0,3.81,1.03,4.66,2.37v-2.13h1.41v11.25Zm-10.38-5.64c0,2.59,1.89,4.58,4.41,4.58,2.65,0,4.64-1.99,4.64-4.58s-1.99-4.56-4.64-4.56-4.41,1.99-4.41,4.56Zm1.51-8.33l-.8-.66c.55-.76,1.31-1.46,2.33-1.46,1.25,0,2.03.95,3.02.95.68,0,1.08-.41,1.52-.93l.8.66c-.55.76-1.24,1.46-2.27,1.46-1.25,0-2.09-.95-3.08-.95-.68,0-1.08.41-1.52.93Z"/>
        <path class="cls-3" d="m231.99,187.13c3.42,0,5.98,2.57,5.98,5.86s-2.55,5.86-5.98,5.86-5.98-2.57-5.98-5.86,2.55-5.86,5.98-5.86Zm0,10.43c2.61,0,4.57-2,4.57-4.57s-1.96-4.57-4.57-4.57-4.57,2-4.57,4.57,1.96,4.57,4.57,4.57Z"/>
        <path class="cls-3" d="m256.08,184.48c-.68-.33-2-.73-3.36-.73-2.09,0-3.52,1.02-3.52,2.52,0,1.31.47,2.09,1.55,3.19l5.85,5.61c.95-1.25,1.28-3.42,1.14-5.11h1.3c.14,2.51-.45,4.51-1.48,6.01l2.67,2.64h-1.88l-1.71-1.66c-.64.69-2.18,1.9-4.79,1.9-3.32,0-5.81-1.91-5.81-4.7,0-2.32,1.78-3.76,3.18-4.5-.77-.86-1.42-1.85-1.42-3.3,0-2.29,2-3.88,4.92-3.88,1.54,0,2.8.38,3.59.74l-.22,1.28Zm-6.14,6.07c-1.05.52-2.5,1.57-2.5,3.61s1.92,3.4,4.38,3.4c2.31,0,3.43-.98,4-1.54l-5.88-5.47Z"/>
        <path class="cls-3" d="m108.34,212.79v14.62h-1.41v-14.62h-5.4v-1.29h12.21v1.29h-5.4Z"/>
        <path class="cls-3" d="m115.64,217.95c.63-1.37,1.8-2.03,3.14-2.03.71,0,1.22.11,1.65.29l-.14,1.31c-.49-.19-.86-.3-1.58-.3-1.76,0-3.06,1.31-3.06,3.82v6.36h-1.42v-11.25h1.41v1.79Z"/>
        <path class="cls-3" d="m133.5,227.41h-1.41v-2.17c-.84,1.35-2.53,2.4-4.66,2.4-3.25,0-5.7-2.57-5.7-5.87s2.45-5.85,5.7-5.85c2.12,0,3.81,1.03,4.66,2.37v-2.13h1.41v11.25Zm-10.38-5.64c0,2.59,1.89,4.58,4.41,4.58,2.65,0,4.64-1.99,4.64-4.58s-1.99-4.56-4.64-4.56-4.41,1.99-4.41,4.56Z"/>
        <path class="cls-3" d="m148.12,220.54v6.87h-1.38v-6.45c0-2.52-1.28-3.73-3.61-3.73-2.14,0-3.86,1.56-3.86,3.8v6.38h-1.41v-11.25h1.41v1.96c.89-1.52,2.5-2.19,4.08-2.19,2.84,0,4.77,1.57,4.77,4.62Z"/>
        <path class="cls-3" d="m156.61,221.25c2.18.42,3.33,1.46,3.33,3.04,0,2.1-1.63,3.36-4.36,3.36-1.48,0-3.04-.32-4.16-.84l.22-1.34c.93.56,2.37.89,3.83.89,1.92,0,3.08-.71,3.08-1.92s-1.12-1.7-2.85-2.02l-1.25-.23c-1.75-.33-3.09-1.17-3.09-2.89,0-2.1,1.68-3.36,4.46-3.36,1.32,0,2.61.23,3.43.56l-.23,1.24c-.9-.34-2.06-.55-3.08-.55-1.96,0-3.13.74-3.13,1.98s1.02,1.56,2.75,1.89l1.04.2Z"/>
        <path class="cls-3" d="m164.62,216.16v2.13c.86-1.34,2.54-2.37,4.66-2.37,3.25,0,5.7,2.55,5.7,5.85s-2.45,5.87-5.7,5.87c-2.13,0-3.82-1.05-4.66-2.4v6.86h-1.41v-15.94h1.41Zm-.07,5.61c0,2.59,1.99,4.58,4.64,4.58s4.41-1.99,4.41-4.58-1.89-4.56-4.41-4.56c-2.65,0-4.64,1.99-4.64,4.56Z"/>
        <path class="cls-3" d="m189.2,227.41h-1.41v-2.17c-.84,1.35-2.53,2.4-4.66,2.4-3.25,0-5.7-2.57-5.7-5.87s2.45-5.85,5.7-5.85c2.12,0,3.81,1.03,4.66,2.37v-2.13h1.41v11.25Zm-10.38-5.64c0,2.59,1.89,4.58,4.41,4.58,2.65,0,4.64-1.99,4.64-4.58s-1.99-4.56-4.64-4.56-4.41,1.99-4.41,4.56Z"/>
        <path class="cls-3" d="m194.97,217.95c.63-1.37,1.8-2.03,3.14-2.03.71,0,1.22.11,1.65.29l-.14,1.31c-.49-.19-.86-.3-1.58-.3-1.76,0-3.06,1.31-3.06,3.82v6.36h-1.42v-11.25h1.41v1.79Z"/>
        <path class="cls-3" d="m211.64,226.53c-1.32.8-2.73,1.11-4.18,1.11-3.8,0-6.41-2.39-6.41-5.86s2.4-5.86,5.79-5.86c3.96,0,5.92,3.11,5.38,6.38h-9.66c.22,2.59,2.55,4.01,4.73,4.01,1.3,0,2.53-.11,4.04-1.03l.3,1.25Zm-.74-5.43c-.11-2.21-1.58-3.84-4.02-3.84s-4.12,1.62-4.29,3.84h8.31Zm-.6-6.42h-1.44l-2.04-3-2.09,3h-1.44l3.08-4.31h.84l3.08,4.31Z"/>
        <path class="cls-3" d="m225.97,220.54v6.87h-1.38v-6.45c0-2.52-1.28-3.73-3.61-3.73-2.14,0-3.86,1.56-3.86,3.8v6.38h-1.41v-11.25h1.41v1.96c.89-1.52,2.5-2.19,4.08-2.19,2.84,0,4.77,1.57,4.77,4.62Z"/>
        <path class="cls-3" d="m235.48,215.93c1.56,0,2.81.42,3.38.74l-.15,1.29c-.7-.38-1.9-.69-3.22-.69-2.86,0-4.82,1.79-4.82,4.51s1.97,4.54,4.85,4.54c1.22,0,2.57-.32,3.34-.75l.26,1.3c-.93.47-2.38.79-3.6.79-3.75,0-6.32-2.39-6.32-5.87s2.55-5.85,6.28-5.85Z"/>
        <path class="cls-3" d="m242.09,212.39c0-.52.36-.88.88-.88s.89.36.89.88-.38.88-.89.88-.88-.36-.88-.88Zm.18,3.77h1.41v11.25h-1.41v-11.25Z"/>
        <path class="cls-3" d="m258.85,227.41h-1.41v-2.17c-.84,1.35-2.53,2.4-4.66,2.4-3.25,0-5.7-2.57-5.7-5.87s2.45-5.85,5.7-5.85c2.12,0,3.81,1.03,4.66,2.37v-2.13h1.41v11.25Zm-10.38-5.64c0,2.59,1.89,4.58,4.41,4.58,2.65,0,4.64-1.99,4.64-4.58s-1.99-4.56-4.64-4.56-4.41,1.99-4.41,4.56Z"/>
      </g>
    </g>
  </g>
</svg>