<?xml version="1.0" encoding="UTF-8"?>
<svg id="Camada_2" data-name="Camada 2" xmlns="http://www.w3.org/2000/svg" xmlns:xlink="http://www.w3.org/1999/xlink" viewBox="0 0 364.12 303.41">
  <defs>
    <style>
      .cls-1 {
        filter: url(#outer-glow-1);
      }

      .cls-2 {
        fill: #0c0d65;
      }

      .cls-2, .cls-3 {
        stroke-width: 0px;
      }

      .cls-4 {
        fill: #01012f;
        stroke: #0c0d65;
        stroke-miterlimit: 10;
        stroke-width: 2px;
      }

      .cls-3 {
        fill: #dee8da;
      }
    </style>
    <filter id="outer-glow-1" filterUnits="userSpaceOnUse">
      <feOffset dx="0" dy="0"/>
      <feGaussianBlur result="blur" stdDeviation="18"/>
      <feFlood flood-color="#1b2087" flood-opacity=".69"/>
      <feComposite in2="blur" operator="in"/>
      <feComposite in="SourceGraphic"/>
    </filter>
  </defs>
  <g id="Camada_1-2" data-name="Camada 1">
    <g>
      <g class="cls-1">
        <rect class="cls-4" x="1" y="1" width="362.12" height="301.41" rx="19.76" ry="19.76"/>
      </g>
      <g>
        <g>
          <path class="cls-3" d="m126.45,199.61v-15.91h1.41v14.62h9.63v1.29h-11.04Z"/>
          <path class="cls-3" d="m139.97,184.59c0-.52.36-.88.88-.88s.89.36.89.88-.38.88-.89.88-.88-.36-.88-.88Zm.18,3.77h1.41v11.25h-1.41v-11.25Z"/>
          <path class="cls-3" d="m145.91,199.61v-16.5h1.41v7.42c.84-1.35,2.53-2.4,4.66-2.4,3.25,0,5.7,2.57,5.7,5.87s-2.45,5.85-5.7,5.85c-2.12,0-3.81-1.03-4.66-2.37v2.13h-1.41Zm10.38-5.61c0-2.59-1.89-4.58-4.41-4.58-2.65,0-4.64,1.99-4.64,4.58s1.99,4.56,4.64,4.56,4.41-1.99,4.41-4.56Z"/>
          <path class="cls-3" d="m170.72,198.73c-1.32.8-2.73,1.11-4.18,1.11-3.8,0-6.41-2.39-6.41-5.86s2.4-5.86,5.79-5.86c3.96,0,5.92,3.11,5.38,6.38h-9.66c.22,2.59,2.55,4.01,4.73,4.01,1.3,0,2.53-.11,4.04-1.03l.3,1.25Zm-.74-5.43c-.11-2.21-1.58-3.84-4.02-3.84s-4.12,1.62-4.29,3.84h8.31Z"/>
          <path class="cls-3" d="m176.19,190.15c.63-1.37,1.8-2.03,3.14-2.03.71,0,1.22.11,1.65.29l-.14,1.31c-.49-.19-.86-.3-1.58-.3-1.76,0-3.06,1.31-3.06,3.82v6.36h-1.42v-11.25h1.41v1.79Z"/>
          <path class="cls-3" d="m192.65,197.48c-.86,1.34-2.54,2.37-4.66,2.37-3.25,0-5.7-2.55-5.7-5.85s2.45-5.87,5.7-5.87c2.13,0,3.82,1.05,4.66,2.4v-7.42h1.41v16.5h-1.41v-2.13Zm.07-3.48c0-2.59-1.99-4.58-4.64-4.58s-4.41,1.99-4.41,4.58,1.89,4.56,4.41,4.56c2.65,0,4.64-1.99,4.64-4.56Z"/>
          <path class="cls-3" d="m209.23,199.61h-1.41v-2.17c-.84,1.35-2.53,2.4-4.66,2.4-3.25,0-5.7-2.57-5.7-5.87s2.45-5.85,5.7-5.85c2.12,0,3.81,1.03,4.66,2.37v-2.13h1.41v11.25Zm-10.38-5.64c0,2.59,1.89,4.58,4.41,4.58,2.65,0,4.64-1.99,4.64-4.58s-1.99-4.56-4.64-4.56-4.41,1.99-4.41,4.56Z"/>
          <path class="cls-3" d="m223,197.48c-.86,1.34-2.54,2.37-4.66,2.37-3.25,0-5.7-2.55-5.7-5.85s2.45-5.87,5.7-5.87c2.13,0,3.82,1.05,4.66,2.4v-7.42h1.41v16.5h-1.41v-2.13Zm.07-3.48c0-2.59-1.99-4.58-4.64-4.58s-4.41,1.99-4.41,4.58,1.89,4.56,4.41,4.56c2.65,0,4.64-1.99,4.64-4.56Z"/>
          <path class="cls-3" d="m238.4,198.73c-1.32.8-2.73,1.11-4.18,1.11-3.8,0-6.41-2.39-6.41-5.86s2.4-5.86,5.79-5.86c3.96,0,5.92,3.11,5.38,6.38h-9.66c.22,2.59,2.55,4.01,4.73,4.01,1.3,0,2.53-.11,4.04-1.03l.3,1.25Zm-.74-5.43c-.11-2.21-1.58-3.84-4.02-3.84s-4.12,1.62-4.29,3.84h8.31Z"/>
        </g>
        <g>
          <circle class="cls-2" cx="182.06" cy="113.06" r="48.52"/>
          <g>
            <path class="cls-3" d="m153.64,130.16c.19-.75.34-1.51.6-2.23.6-1.68,1.65-3.04,3.01-4.17,2.43-2.02,4.86-4.05,7.27-6.09,3.9-3.3,8.86-3.34,12.81-.11.08.07.17.13.28.22,1.42-1.19,2.82-2.36,4.22-3.53.24-.2.47-.42.73-.6.65-.46,1.45-.22,1.71.53.18.52.27,1.07.46,1.59.08.21.26.43.46.55.42.26.88.46,1.33.69,1.04.53,1.14,1.39.26,2.14-1.87,1.57-3.73,3.15-5.62,4.7-.42.34-.55.69-.56,1.21-.06,2.64-1.07,4.87-2.96,6.71-.34.33-.72.49-1.21.32-.45-.16-.77-.5-.73-.94.03-.38.24-.82.5-1.1.92-.98,1.58-2.09,1.92-3.38.03-.1.03-.21.04-.27-.96.36-1.92.73-2.87,1.09-.08.03-.16.08-.23.14-1.86,1.63-3.71,3.28-5.57,4.9-1.02.89-2.05,1.76-3.11,2.6-1.63,1.28-3.43,1.52-5.3.6-1.88-.93-2.81-2.52-2.77-4.62.03-1.37.57-2.57,1.62-3.46,2.66-2.27,5.33-4.52,8.03-6.74,1.54-1.26,3.68-1.41,5.4-.41.39.23.67.21.99-.04.49-.39.98-.78,1.47-1.18-2.7-2.39-6.75-2.47-9.51-.18-2.65,2.19-5.31,4.38-7.89,6.65-2.3,2.02-3.09,4.62-2.25,7.57.85,2.98,2.92,4.75,5.96,5.26,2.25.38,4.28-.27,6.02-1.76.69-.59,1.51-.48,1.87.22.25.49.16.99-.31,1.4-2.17,1.89-4.69,2.79-7.57,2.41-4.33-.57-7.43-3.44-8.36-7.65-.05-.23-.11-.46-.17-.69,0-.78,0-1.55,0-2.33Zm12.79-5.05c-1.69,1.42-3.35,2.78-4.97,4.19-.86.75-1.09,1.74-.75,2.82.57,1.82,2.76,2.45,4.27,1.22,2-1.63,3.97-3.32,5.95-4.98.26-.22.52-.45.83-.71-2.09-.31-3.82-1.15-5.33-2.53Zm1.76-1.48c2.72,2.38,6.72,2.44,9.51.16,1.42-1.16,2.81-2.35,4.21-3.53.75-.63,1.49-1.26,2.31-1.94-.92-.29-1.52-.8-1.63-1.77-.15.11-.23.16-.3.22-1.91,1.61-3.8,3.24-5.74,4.8-.64.51-1.37.93-2.11,1.28-.65.31-1.31.24-1.91-.26-.5-.42-1.12-.52-1.77-.48-1.1.06-1.75.88-2.56,1.51Z"/>
            <path class="cls-3" d="m184.37,105.67c-1.78,1.03-3.5,2.02-5.23,3.02-1.1.64-1.83.27-2-1,0-.07-.04-.15-.03-.22.19-1.24-.54-1.91-1.48-2.5-.34-.21-.64-.62-.77-1-.17-.54.18-.93.66-1.2,2.18-1.25,4.35-2.52,6.52-3.76.34-.2.52-.41.6-.83.52-2.75,1.93-4.95,4.34-6.4,3.08-1.86,6.19-3.68,9.35-5.4,5.84-3.18,13.13.5,14.02,7.09.56,4.11-.98,7.39-4.49,9.59-2.97,1.86-6.04,3.57-9.11,5.27-4.14,2.29-9.09,1.31-12.11-2.32-.08-.1-.17-.19-.29-.31Zm2.02-1.15c2.21,2.74,6.06,3.58,9.11,1.9,3.16-1.73,6.27-3.54,9.35-5.4,2.58-1.56,3.87-4.77,3.23-7.62-1.14-5.07-6.51-7.45-11.03-4.86-2.82,1.61-5.64,3.24-8.44,4.88-.57.33-1.11.73-1.6,1.18-.78.7-1.36,1.56-1.73,2.59.65-.18,1.23-.42,1.82-.48.91-.09,1.62-.48,2.39-.95,2.98-1.81,6.02-3.52,9.05-5.26.79-.45,1.65-.65,2.56-.59,2.22.14,4.02,1.63,4.56,3.74.54,2.08-.35,4.3-2.27,5.44-2.95,1.75-5.92,3.48-8.92,5.15-1.75.97-3.57.91-5.16-.31-.74-.57-1.23-.4-1.85-.04-.35.2-.69.41-1.07.64Zm10.28-4.13c1.96-1.14,3.89-2.23,5.77-3.39.98-.6,1.33-1.9.96-3-.56-1.66-2.4-2.34-3.98-1.43-2.42,1.38-4.83,2.79-7.24,4.18-.08.05-.15.11-.29.22,1.96.66,3.51,1.78,4.78,3.42Zm-17.43,5.63c.28-.16.44-.24.6-.33,2.13-1.23,4.24-2.47,6.38-3.68.56-.31,1.16-.59,1.78-.74.71-.18,1.48-.27,2.07.37,1.31,1.43,3.05,1.13,4.55-.2-.13-.15-.26-.31-.4-.45-2.3-2.36-5.9-2.91-8.82-1.31-1.57.86-3.11,1.78-4.66,2.68-.89.51-1.78,1.03-2.74,1.59.81.46,1.35,1.03,1.24,2.07Z"/>
            <path class="cls-3" d="m196.49,120.95c.23-.29.4-.73.71-.85.33-.14.91-.13,1.16.07.85.68,1.62,1.45,2.38,2.23.42.43.35,1.08-.06,1.5-.39.4-1.02.49-1.45.11-.83-.73-1.61-1.51-2.39-2.3-.15-.15-.2-.42-.35-.76Z"/>
            <path class="cls-3" d="m165.12,103.33c-.13-.07-.44-.16-.66-.36-.71-.64-1.4-1.31-2.09-1.98-.51-.51-.53-1.15-.08-1.62.43-.45,1.09-.48,1.59-.03.75.68,1.48,1.39,2.2,2.11.34.34.43.76.22,1.22-.2.43-.53.64-1.17.66Z"/>
            <path class="cls-3" d="m160.03,107.85c.07.02.26.05.42.11.79.31,1.58.62,2.36.95.71.3,1,.89.76,1.5-.24.64-.87.87-1.61.59-.82-.32-1.65-.65-2.46-1-.56-.25-.78-.75-.65-1.32.12-.48.55-.81,1.16-.82Z"/>
            <path class="cls-3" d="m204.27,114.19c-.1.88-.81,1.43-1.58,1.16-.92-.32-1.82-.7-2.71-1.1-.55-.25-.76-.86-.54-1.41.2-.52.75-.85,1.3-.65.99.35,1.97.73,2.91,1.19.28.13.42.54.63.82Z"/>
            <path class="cls-3" d="m190.52,124.14c.29.2.65.35.84.62.54.74,1.03,1.53,1.51,2.31.35.57.2,1.23-.31,1.56-.54.36-1.19.23-1.59-.36-.5-.75-1-1.5-1.47-2.28-.49-.82.02-1.74,1-1.85Z"/>
            <path class="cls-3" d="m169.93,95.61c.02-.57.25-.91.71-1.1.44-.19.9-.12,1.16.24.64.88,1.24,1.79,1.78,2.73.28.48,0,1.1-.47,1.38-.46.27-1.09.19-1.4-.25-.59-.85-1.13-1.73-1.67-2.6-.08-.13-.08-.32-.1-.4Z"/>
            <path class="cls-3" d="m174.05,134.3c0,.61-.52,1.12-1.15,1.11-.6,0-1.09-.49-1.1-1.09-.01-.62.49-1.15,1.11-1.15.6,0,1.14.54,1.14,1.13Z"/>
          </g>
        </g>
      </g>
    </g>
  </g>
</svg>