<?xml version="1.0" encoding="UTF-8"?>
<svg id="Camada_2" data-name="Camada 2" xmlns="http://www.w3.org/2000/svg" xmlns:xlink="http://www.w3.org/1999/xlink" viewBox="0 0 364.12 303.41">
  <defs>
    <style>
      .cls-1 {
        filter: url(#outer-glow-1);
      }

      .cls-2 {
        fill: #0c0d65;
      }

      .cls-2, .cls-3 {
        stroke-width: 0px;
      }

      .cls-4 {
        fill: #01012f;
        stroke: #0c0d65;
        stroke-miterlimit: 10;
        stroke-width: 2px;
      }

      .cls-3 {
        fill: #dee8da;
      }
    </style>
    <filter id="outer-glow-1" filterUnits="userSpaceOnUse">
      <feOffset dx="0" dy="0"/>
      <feGaussianBlur result="blur" stdDeviation="18"/>
      <feFlood flood-color="#1b2087" flood-opacity=".69"/>
      <feComposite in2="blur" operator="in"/>
      <feComposite in="SourceGraphic"/>
    </filter>
  </defs>
  <g id="Camada_1-2" data-name="Camada 1">
    <g>
      <g class="cls-1">
        <rect class="cls-4" x="1" y="1" width="362.12" height="301.41" rx="19.76" ry="19.76"/>
      </g>
      <g>
        <path class="cls-3" d="m128.97,193.92l-6.82-8.26v13.96h-1.38v-15.91h1.57l6.82,8.3,6.79-8.3h1.56v15.91h-1.38v-13.97l-6.75,8.27h-.4Z"/>
        <path class="cls-3" d="m147.1,188.13c3.42,0,5.98,2.57,5.98,5.86s-2.55,5.86-5.98,5.86-5.98-2.57-5.98-5.86,2.55-5.86,5.98-5.86Zm0,10.43c2.61,0,4.57-2,4.57-4.57s-1.96-4.57-4.57-4.57-4.57,2-4.57,4.57,1.96,4.57,4.57,4.57Z"/>
        <path class="cls-3" d="m156.45,199.61v-16.5h1.41v7.42c.84-1.35,2.53-2.4,4.66-2.4,3.25,0,5.7,2.57,5.7,5.87s-2.45,5.85-5.7,5.85c-2.12,0-3.81-1.03-4.66-2.37v2.13h-1.41Zm10.38-5.61c0-2.59-1.89-4.58-4.41-4.58-2.65,0-4.64,1.99-4.64,4.58s1.99,4.56,4.64,4.56,4.41-1.99,4.41-4.56Z"/>
        <path class="cls-3" d="m171.45,184.59c0-.52.36-.88.88-.88s.89.36.89.88-.38.88-.89.88-.88-.36-.88-.88Zm.18,3.77h1.41v11.25h-1.41v-11.25Z"/>
        <path class="cls-3" d="m177.39,183.11h1.41v16.5h-1.41v-16.5Z"/>
        <path class="cls-3" d="m182.98,184.59c0-.52.36-.88.88-.88s.89.36.89.88-.38.88-.89.88-.88-.36-.88-.88Zm.18,3.77h1.41v11.25h-1.41v-11.25Z"/>
        <path class="cls-3" d="m198.33,197.48c-.86,1.34-2.54,2.37-4.66,2.37-3.25,0-5.7-2.55-5.7-5.85s2.45-5.87,5.7-5.87c2.13,0,3.82,1.05,4.66,2.4v-7.42h1.41v16.5h-1.41v-2.13Zm.07-3.48c0-2.59-1.99-4.58-4.64-4.58s-4.41,1.99-4.41,4.58,1.89,4.56,4.41,4.56c2.65,0,4.64-1.99,4.64-4.56Z"/>
        <path class="cls-3" d="m214.91,199.61h-1.41v-2.17c-.84,1.35-2.53,2.4-4.66,2.4-3.25,0-5.7-2.57-5.7-5.87s2.45-5.85,5.7-5.85c2.12,0,3.81,1.03,4.66,2.37v-2.13h1.41v11.25Zm-10.38-5.64c0,2.59,1.89,4.58,4.41,4.58,2.65,0,4.64-1.99,4.64-4.58s-1.99-4.56-4.64-4.56-4.41,1.99-4.41,4.56Z"/>
        <path class="cls-3" d="m228.68,197.48c-.86,1.34-2.54,2.37-4.66,2.37-3.25,0-5.7-2.55-5.7-5.85s2.45-5.87,5.7-5.87c2.13,0,3.82,1.05,4.66,2.4v-7.42h1.41v16.5h-1.41v-2.13Zm.07-3.48c0-2.59-1.99-4.58-4.64-4.58s-4.41,1.99-4.41,4.58,1.89,4.56,4.41,4.56c2.65,0,4.64-1.99,4.64-4.56Z"/>
        <path class="cls-3" d="m244.08,198.73c-1.32.8-2.73,1.11-4.18,1.11-3.8,0-6.41-2.39-6.41-5.86s2.4-5.86,5.79-5.86c3.96,0,5.92,3.11,5.38,6.38h-9.66c.22,2.59,2.55,4.01,4.73,4.01,1.3,0,2.53-.11,4.04-1.03l.3,1.25Zm-.74-5.43c-.11-2.21-1.58-3.84-4.02-3.84s-4.12,1.62-4.29,3.84h8.31Z"/>
        <path class="cls-3" d="m140.89,212.5h1.41v10.11c0,2.81,2.06,4.72,5.47,4.72s5.5-1.96,5.5-4.72v-10.11h1.41v10.11c0,3.56-2.66,6.04-6.9,6.04s-6.88-2.41-6.88-6.04v-10.11Z"/>
        <path class="cls-3" d="m160.47,218.95c.63-1.37,1.8-2.03,3.14-2.03.71,0,1.22.11,1.65.29l-.14,1.31c-.49-.19-.86-.3-1.58-.3-1.76,0-3.06,1.31-3.06,3.82v6.36h-1.42v-11.25h1.41v1.79Z"/>
        <path class="cls-3" d="m167.86,228.41v-16.5h1.41v7.42c.84-1.35,2.53-2.4,4.66-2.4,3.25,0,5.7,2.57,5.7,5.87s-2.45,5.85-5.7,5.85c-2.12,0-3.81-1.03-4.66-2.37v2.13h-1.41Zm10.38-5.61c0-2.59-1.89-4.58-4.41-4.58-2.65,0-4.64,1.99-4.64,4.58s1.99,4.56,4.64,4.56,4.41-1.99,4.41-4.56Z"/>
        <path class="cls-3" d="m193.85,228.41h-1.41v-2.17c-.84,1.35-2.53,2.4-4.66,2.4-3.25,0-5.7-2.57-5.7-5.87s2.45-5.85,5.7-5.85c2.12,0,3.81,1.03,4.66,2.37v-2.13h1.41v11.25Zm-10.38-5.64c0,2.59,1.89,4.58,4.41,4.58,2.65,0,4.64-1.99,4.64-4.58s-1.99-4.56-4.64-4.56-4.41,1.99-4.41,4.56Z"/>
        <path class="cls-3" d="m208.46,221.54v6.87h-1.38v-6.45c0-2.52-1.28-3.73-3.61-3.73-2.14,0-3.86,1.56-3.86,3.8v6.38h-1.41v-11.25h1.41v1.96c.89-1.52,2.5-2.19,4.08-2.19,2.84,0,4.77,1.57,4.77,4.62Z"/>
        <path class="cls-3" d="m223.47,228.41h-1.41v-2.17c-.84,1.35-2.53,2.4-4.66,2.4-3.25,0-5.7-2.57-5.7-5.87s2.45-5.85,5.7-5.85c2.12,0,3.81,1.03,4.66,2.37v-2.13h1.41v11.25Zm-10.38-5.64c0,2.59,1.89,4.58,4.41,4.58,2.65,0,4.64-1.99,4.64-4.58s-1.99-4.56-4.64-4.56-4.41,1.99-4.41,4.56Z"/>
      </g>
      <g>
        <circle class="cls-2" cx="182.06" cy="113.06" r="48.52"/>
        <g>
          <path class="cls-3" d="m182.05,126.49c-5,0-10.01,0-15.01,0-1.56,0-2.89-.48-3.83-1.79-.48-.67-.77-1.42-.77-2.26,0-4.21-.01-8.43-.01-12.64,0-4.45-.04-8.91.02-13.36.06-4.72,3.61-8.93,8.26-9.87.73-.15,1.49-.22,2.24-.23,6.09-.02,12.18-.01,18.27,0,5.41,0,9.89,4,10.5,9.38.05.42.04.85.04,1.27,0,8.36-.02,16.71.01,25.07,0,2.36-1.58,3.95-3.24,4.3-.48.1-.98.14-1.48.14-5,0-10.01,0-15.01,0Zm-14.07-29.23v11.46h11.87v-11.46h-11.87Zm28.24.01h-11.89v11.45h11.89v-11.45Zm.03,20.61c0-1.57-1.23-2.81-2.79-2.8-1.53.02-2.76,1.25-2.76,2.78,0,1.55,1.27,2.82,2.8,2.81,1.53-.01,2.74-1.25,2.75-2.79Zm-22.76,0c0-1.53-1.21-2.76-2.75-2.79-1.55-.02-2.8,1.22-2.8,2.78,0,1.54,1.21,2.78,2.74,2.8,1.53.02,2.81-1.25,2.81-2.8Z"/>
          <path class="cls-3" d="m160.45,139.78c.9-1.18,1.72-2.27,2.56-3.36,1.64-2.15,3.28-4.3,4.93-6.43.13-.17.36-.35.55-.36,1.64-.03,3.27-.02,5.04-.02-.71.94-1.36,1.8-2.06,2.73h21.27c-.69-.91-1.33-1.76-2.02-2.68.18-.02.31-.05.44-.05,1.47,0,2.94-.01,4.41,0,.21,0,.49.1.6.25,2.49,3.23,4.96,6.48,7.44,9.73.02.03.02.07.06.18-.53,0-1.03,0-1.53,0-1.09,0-2.17.02-3.26-.02-.25,0-.56-.16-.72-.35-.76-.94-1.48-1.93-2.23-2.87-.12-.16-.38-.29-.58-.29-8.83-.01-17.66-.01-26.49,0-.21,0-.49.15-.62.31-.76.95-1.48,1.92-2.23,2.88-.11.14-.3.33-.46.33-1.67.02-3.33.01-5.11.01Z"/>
        </g>
      </g>
    </g>
  </g>
</svg>