<?xml version="1.0" encoding="UTF-8"?>
<svg id="Camada_2" data-name="Camada 2" xmlns="http://www.w3.org/2000/svg" xmlns:xlink="http://www.w3.org/1999/xlink" viewBox="0 0 364.12 303.41">
  <defs>
    <style>
      .cls-1 {
        filter: url(#outer-glow-1);
      }

      .cls-2 {
        fill: #0c0d65;
      }

      .cls-2, .cls-3 {
        stroke-width: 0px;
      }

      .cls-4 {
        fill: #01012f;
        stroke: #0c0d65;
        stroke-miterlimit: 10;
        stroke-width: 2px;
      }

      .cls-3 {
        fill: #dee8da;
      }
    </style>
    <filter id="outer-glow-1" filterUnits="userSpaceOnUse">
      <feOffset dx="0" dy="0"/>
      <feGaussianBlur result="blur" stdDeviation="18"/>
      <feFlood flood-color="#1b2087" flood-opacity=".69"/>
      <feComposite in2="blur" operator="in"/>
      <feComposite in="SourceGraphic"/>
    </filter>
  </defs>
  <g id="Camada_1-2" data-name="Camada 1">
    <g>
      <g class="cls-1">
        <rect class="cls-4" x="1" y="1" width="362.12" height="301.41" rx="19.76" ry="19.76"/>
      </g>
      <g>
        <path class="cls-3" d="m126.55,191.67c-2.37-.82-3.9-1.85-3.9-3.93,0-2.67,2.09-4.28,5.55-4.28,1.51,0,3.2.33,4.52.87l-.19,1.25c-1.39-.54-3.01-.86-4.3-.86-2.58,0-4.12,1.11-4.12,2.98,0,1.68,1.48,2.16,3,2.7l2.66.91c2.86,1.01,3.8,2.21,3.8,4.21,0,2.71-2.14,4.32-5.73,4.32-1.61,0-3.54-.41-5.17-1.09l.16-1.39c1.56.75,3.43,1.2,4.98,1.2,2.73,0,4.37-1.16,4.37-3.11,0-1.29-.74-2.1-2.81-2.82l-2.82-.96Z"/>
        <path class="cls-3" d="m146.54,198.73c-1.32.8-2.73,1.11-4.18,1.11-3.8,0-6.41-2.39-6.41-5.86s2.4-5.86,5.79-5.86c3.96,0,5.92,3.11,5.38,6.38h-9.66c.22,2.59,2.55,4.01,4.73,4.01,1.3,0,2.53-.11,4.04-1.03l.3,1.25Zm-.74-5.43c-.11-2.21-1.58-3.84-4.02-3.84s-4.12,1.62-4.29,3.84h8.31Z"/>
        <path class="cls-3" d="m155.35,199.85c-3.25,0-5.7-2.57-5.7-5.87s2.45-5.85,5.7-5.85c2.12,0,3.81,1.03,4.66,2.37v-2.13h1.41v10.39c0,3.13-2.04,5.78-6.41,5.78-1.11,0-3.02-.27-4.31-.93l.23-1.3c1.31.64,2.72.95,4.11.95,2.74,0,4.97-1.34,4.97-4.28v-1.54c-.84,1.35-2.53,2.4-4.66,2.4Zm-4.31-5.87c0,2.59,1.89,4.58,4.41,4.58,2.65,0,4.64-1.99,4.64-4.58s-1.99-4.56-4.64-4.56-4.41,1.99-4.41,4.56Z"/>
        <path class="cls-3" d="m174.37,188.36h1.38v6.68c0,2.8-1.9,4.8-5.07,4.8s-5.07-2-5.07-4.73v-6.75h1.38v6.46c0,2.48,1.46,3.71,3.69,3.71s3.69-1.23,3.69-3.71v-6.46Z"/>
        <path class="cls-3" d="m181.33,190.15c.63-1.37,1.8-2.03,3.14-2.03.71,0,1.22.11,1.65.29l-.14,1.31c-.49-.19-.86-.3-1.58-.3-1.76,0-3.06,1.31-3.06,3.82v6.36h-1.42v-11.25h1.41v1.79Z"/>
        <path class="cls-3" d="m199.19,199.61h-1.41v-2.17c-.84,1.35-2.53,2.4-4.66,2.4-3.25,0-5.7-2.57-5.7-5.87s2.45-5.85,5.7-5.85c2.12,0,3.81,1.03,4.66,2.37v-2.13h1.41v11.25Zm-10.38-5.64c0,2.59,1.89,4.58,4.41,4.58,2.65,0,4.64-1.99,4.64-4.58s-1.99-4.56-4.64-4.56-4.41,1.99-4.41,4.56Z"/>
        <path class="cls-3" d="m213.81,192.74v6.87h-1.38v-6.45c0-2.52-1.28-3.73-3.61-3.73-2.14,0-3.86,1.56-3.86,3.8v6.38h-1.41v-11.25h1.41v1.96c.89-1.52,2.5-2.19,4.08-2.19,2.84,0,4.77,1.57,4.77,4.62Z"/>
        <path class="cls-3" d="m221.45,201.76l.73-1.99c-3.09-.45-5.13-2.68-5.13-5.79,0-3.47,2.55-5.85,6.28-5.85,1.56,0,2.81.42,3.38.74l-.15,1.29c-.7-.38-1.9-.69-3.22-.69-2.86,0-4.82,1.79-4.82,4.51s1.97,4.54,4.85,4.54c1.22,0,2.57-.32,3.34-.75l.26,1.3c-.93.47-2.38.79-3.6.79-.06,0-.12-.01-.18-.01l-.33.97c1.41.11,2.37.81,2.37,1.9,0,1.27-1.05,2.03-2.82,2.03-.67,0-1.23-.12-1.51-.21v-1.16c.28.09.75.22,1.39.22,1.07,0,1.63-.3,1.63-.88,0-.62-.63-.95-1.89-.95h-.57Z"/>
        <path class="cls-3" d="m240.73,199.61h-1.41v-2.17c-.84,1.35-2.53,2.4-4.66,2.4-3.25,0-5.7-2.57-5.7-5.87s2.45-5.85,5.7-5.85c2.12,0,3.81,1.03,4.66,2.37v-2.13h1.41v11.25Zm-10.38-5.64c0,2.59,1.89,4.58,4.41,4.58,2.65,0,4.64-1.99,4.64-4.58s-1.99-4.56-4.64-4.56-4.41,1.99-4.41,4.56Z"/>
        <path class="cls-3" d="m144.13,223.3v5.11h-1.41v-15.91h6.86c2.99,0,5.55,1.71,5.55,5.44,0,3.36-2.57,5.37-5.55,5.37h-5.45Zm0-1.29h5.45c2.23,0,4.15-1.52,4.15-4.08,0-2.85-1.92-4.15-4.15-4.15h-5.45v8.23Z"/>
        <path class="cls-3" d="m166.84,217.16h1.38v6.68c0,2.8-1.9,4.8-5.07,4.8s-5.07-2-5.07-4.73v-6.75h1.38v6.46c0,2.48,1.46,3.71,3.69,3.71s3.69-1.23,3.69-3.71v-6.46Zm-3.28-1.82h-1.25l1.66-3.91h1.62l-2.03,3.91Z"/>
        <path class="cls-3" d="m172.39,228.41v-16.5h1.41v7.42c.84-1.35,2.53-2.4,4.66-2.4,3.25,0,5.7,2.57,5.7,5.87s-2.45,5.85-5.7,5.85c-2.12,0-3.81-1.03-4.66-2.37v2.13h-1.41Zm10.38-5.61c0-2.59-1.89-4.58-4.41-4.58-2.65,0-4.64,1.99-4.64,4.58s1.99,4.56,4.64,4.56,4.41-1.99,4.41-4.56Z"/>
        <path class="cls-3" d="m187.57,211.91h1.41v16.5h-1.41v-16.5Z"/>
        <path class="cls-3" d="m193.16,213.39c0-.52.36-.88.88-.88s.89.36.89.88-.38.88-.89.88-.88-.36-.88-.88Zm.18,3.77h1.41v11.25h-1.41v-11.25Z"/>
        <path class="cls-3" d="m204.42,216.93c1.56,0,2.81.42,3.38.74l-.15,1.29c-.7-.38-1.9-.69-3.22-.69-2.86,0-4.82,1.79-4.82,4.51s1.97,4.54,4.85,4.54c1.22,0,2.57-.32,3.34-.75l.26,1.3c-.93.47-2.38.79-3.6.79-3.75,0-6.32-2.39-6.32-5.87s2.55-5.85,6.28-5.85Z"/>
        <path class="cls-3" d="m221.83,228.41h-1.41v-2.17c-.84,1.35-2.53,2.4-4.66,2.4-3.25,0-5.7-2.57-5.7-5.87s2.45-5.85,5.7-5.85c2.12,0,3.81,1.03,4.66,2.37v-2.13h1.41v11.25Zm-10.38-5.64c0,2.59,1.89,4.58,4.41,4.58,2.65,0,4.64-1.99,4.64-4.58s-1.99-4.56-4.64-4.56-4.41,1.99-4.41,4.56Z"/>
      </g>
      <g>
        <circle class="cls-2" cx="182.06" cy="113.06" r="48.52"/>
        <path class="cls-3" d="m181.51,86.01c.35,0,.71,0,1.06,0,.55.43,1.12.82,1.64,1.29,3.7,3.33,8.01,5.39,12.93,6.1,1.81.26,3.65.33,5.47.44,1.3.08,2.07.79,2.12,2.07.02.49,0,.99.01,1.48.08,5.03.28,10.07-.25,15.09-.32,2.98-.85,5.9-1.81,8.75-1.68,4.99-4.48,9.21-8.55,12.58-3.38,2.8-7.24,4.71-11.35,6.17-.54.19-1.06.15-1.6-.04-3.05-1.08-5.97-2.42-8.67-4.21-4.75-3.14-8.25-7.3-10.42-12.58-2.02-4.92-2.71-10.1-2.81-15.36-.08-3.91.03-7.82.06-11.73.01-1.48.77-2.15,2.27-2.24,1.98-.12,3.98-.22,5.94-.54,4.33-.7,8.18-2.51,11.55-5.34.79-.66,1.6-1.3,2.4-1.94Zm-9.8,25.96c.08.11.12.17.17.22,1.89,2.09,3.78,4.19,5.67,6.28.98,1.07,2.07,1.11,3.13.11,3.79-3.56,7.58-7.12,11.38-10.68.13-.12.28-.21.44-.32-.94-1.01-1.8-1.93-2.68-2.87-3.51,3.33-6.99,6.63-10.5,9.96-1.58-1.75-3.15-3.48-4.74-5.24-.97.86-1.9,1.69-2.87,2.55Z"/>
      </g>
    </g>
  </g>
</svg>